PathFileType  4	(X/Y/Z) C:\Users\antoi\Documents\MyRepositories\mobilecap\ResultsAnalysis
DataRate	CameraRate	NumFrames	NumMarkers	Units	OrigDataRate	OrigDataStartFrame	OrigNumFrames
100.0	100.0	5	51	mm	100.0	961	1281
Frame#	Time	r_knee			r_shank_antsup			r_ankle			r_calc			r_5meta			r_toe			L_knee			L_shank_antsup			L_ankle			L_calc			L_5meta			L_toe			r_sh2			r_sh3			r_sh4			L_sh2			L_sh3			r_thigh1			r_thigh2			r_thigh3			r_thigh4			r_thigh5			L_thigh1			L_thigh2			L_thigh3			L_thigh4			r.ASIS			r.PSIS			L.ASIS			L.PSIS			C7			R_Shoulder			L_Shoulder			R_Sternum			L_Sternum			R_humerus			R_elbow_med			R_elbow_lat			R_forearm			R_wrist_radius			R_wrist_ulna			L_humerus			L_elbow_med			L_elbow_lat			L_forearm			L_wrist_radius			L_wrist_ulna			R_HJC			L_HJC			R_HJC_reg			L_HJC_reg			
		X1	Y1	Z1	X2	Y2	Z2	X3	Y3	Z3	X4	Y4	Z4	X5	Y5	Z5	X6	Y6	Z6	X7	Y7	Z7	X8	Y8	Z8	X9	Y9	Z9	X10	Y10	Z10	X11	Y11	Z11	X12	Y12	Z12	X13	Y13	Z13	X14	Y14	Z14	X15	Y15	Z15	X16	Y16	Z16	X17	Y17	Z17	X18	Y18	Z18	X19	Y19	Z19	X20	Y20	Z20	X21	Y21	Z21	X22	Y22	Z22	X23	Y23	Z23	X24	Y24	Z24	X25	Y25	Z25	X26	Y26	Z26	X27	Y27	Z27	X28	Y28	Z28	X29	Y29	Z29	X30	Y30	Z30	X31	Y31	Z31	X32	Y32	Z32	X33	Y33	Z33	X34	Y34	Z34	X35	Y35	Z35	X36	Y36	Z36	X37	Y37	Z37	X38	Y38	Z38	X39	Y39	Z39	X40	Y40	Z40	X41	Y41	Z41	X42	Y42	Z42	X43	Y43	Z43	X44	Y44	Z44	X45	Y45	Z45	X46	Y46	Z46	X47	Y47	Z47	X48	Y48	Z48	X49	Y49	Z49	X50	Y50	Z50	X51	Y51	Z51	

961	9.60000000	-70.38776	445.91610	-337.41660	-25.75511	388.33634	-328.54418	-247.15409	98.68313	-361.56780	-306.98710	58.53218	-413.25919	-140.01559	40.05090	-302.77863	-91.13501	60.98725	-350.78838	-62.47986	444.95352	-805.30750	-47.55921	362.14323	-828.54286	-231.86410	100.06898	-798.08350	-295.23356	58.23847	-748.11530	-123.81308	40.82256	-840.75439	-76.14537	58.27243	-788.72667	-75.50414	286.00549	-344.45229	-95.32939	415.59955	-310.30564	-146.40310	311.95708	-306.25403	-122.36991	410.14594	-825.07353	-177.58462	301.85553	-827.66588	-205.70239	707.65195	-447.99846	-118.46371	632.84287	-412.80368	-130.70824	610.82482	-348.88716	-261.52832	666.88121	-360.47594	-181.20692	591.64159	-331.29101	-255.11322	684.88805	-770.84621	-164.91456	580.74565	-809.79236	-339.16583	609.01331	-764.26806	-243.85553	508.79589	-766.30834	-230.28790	751.79885	-453.99749	-393.23600	843.04909	-538.44897	-230.62332	719.76993	-684.29250	-390.48328	838.86370	-635.92085	-124.91011	1210.51313	-581.59764	-62.98767	1153.70451	-417.82541	-49.90116	1150.14025	-726.70054	-37.56209	1090.19193	-551.70291	-34.19270	1087.34145	-588.29410	-74.57378	972.30082	-271.33852	-115.32628	851.70484	-269.96075	-83.83442	894.64276	-216.20664	37.33069	937.86152	-273.06630	99.41229	985.67106	-334.41756	121.22170	948.85427	-320.62872	-71.18432	957.88035	-855.83710	-108.06474	829.51403	-836.68044	-83.01375	858.39035	-901.08249	37.20396	908.27593	-831.04307	96.80808	966.07144	-766.51652	114.67353	923.76838	-765.30547	-329.36804	699.77581	-482.28007	-335.94698	690.10018	-672.59186	-321.79893	697.41140	-485.93659	-317.47009	690.83021	-639.19237	
962	9.61000000	-71.84452	446.97135	-337.76726	-27.25171	389.44179	-328.84689	-247.33226	98.45574	-361.82606	-307.01483	58.50718	-413.25034	-140.02913	40.06346	-302.78134	-91.20545	60.99125	-350.85329	-63.75970	445.85730	-805.03980	-48.68542	362.85766	-828.37693	-231.98069	99.97993	-798.19032	-295.24304	58.19547	-748.17120	-123.81669	40.80581	-840.76216	-76.19387	58.31706	-788.68609	-76.45491	286.87907	-344.75073	-97.08495	416.35936	-310.74925	-147.63287	312.56588	-306.53293	-123.70151	410.57940	-824.83668	-178.54108	302.13547	-827.60788	-200.07622	707.11266	-446.43649	-116.77687	635.17375	-412.35066	-129.60035	613.18416	-348.57980	-259.52559	671.35675	-360.22858	-180.43030	594.71812	-331.16498	-252.62376	689.34950	-770.86612	-164.20325	583.68600	-809.57535	-337.76131	614.72550	-763.39323	-243.97837	513.03801	-765.80407	-228.18934	758.48912	-453.42260	-391.38988	849.27258	-538.23573	-228.23143	726.53840	-684.54918	-388.65467	845.15444	-635.70162	-127.41757	1219.75813	-581.58451	-65.02398	1163.70408	-417.34787	-52.16501	1160.26340	-727.02163	-38.91468	1100.42664	-551.88391	-35.52696	1097.51562	-588.35310	-78.46196	981.23184	-271.65161	-120.72447	861.50125	-270.17008	-88.97747	903.42728	-216.95802	32.82253	944.54073	-273.85596	95.72898	990.97403	-335.55477	116.86959	953.73266	-321.56354	-75.87873	966.87076	-855.20732	-114.49140	838.93929	-834.86360	-89.38679	867.39686	-899.73672	31.84149	915.28315	-830.15995	92.56682	972.10440	-765.59847	109.74147	929.32916	-764.31640	-327.07285	706.12208	-482.18009	-333.53730	696.59731	-672.50335	-319.55933	703.62962	-485.50115	-315.24324	697.13151	-639.29777	
963	9.62000000	-73.54041	448.17562	-338.00651	-29.00325	390.70896	-328.98586	-247.55627	98.26643	-361.89312	-307.04613	58.47294	-413.23708	-140.04933	40.07773	-302.78252	-91.27894	61.03729	-350.86380	-65.09081	446.76435	-804.80601	-50.00282	363.63941	-828.18561	-232.14358	99.89750	-798.31761	-295.27606	58.12341	-748.17677	-123.81876	40.79819	-840.77231	-76.24785	58.36682	-788.71608	-77.72587	287.95305	-344.90636	-98.95761	417.35825	-310.88868	-149.12817	313.36598	-306.76414	-125.06452	411.17510	-824.91314	-179.43005	302.67128	-827.77859	-195.25989	707.78295	-445.03688	-115.18371	637.64236	-411.66198	-128.63520	615.56194	-348.09012	-257.66204	675.81405	-360.03830	-179.85231	597.76199	-331.06803	-250.03693	693.95226	-770.99379	-163.42821	586.79203	-809.53368	-336.19829	620.69864	-762.59841	-244.11716	517.33466	-764.75206	-226.00309	765.48890	-452.81761	-389.45456	855.64616	-537.97418	-225.64061	733.68167	-684.89982	-386.81314	851.63865	-635.41633	-129.95597	1229.28780	-581.68023	-67.20871	1174.04408	-416.73072	-54.47246	1170.59632	-727.36921	-40.30819	1110.90114	-551.94515	-36.90282	1107.94007	-588.40004	-82.43084	990.29178	-272.01399	-126.59279	872.04573	-269.89366	-94.23727	912.37111	-217.92602	28.18065	951.30194	-274.77622	91.94577	996.16411	-336.89333	112.37644	958.50603	-322.78852	-80.69505	976.10582	-854.42538	-120.99243	847.42267	-831.02985	-95.83876	876.64996	-898.15251	26.50730	922.22936	-829.06047	88.46220	977.86018	-764.59918	104.82545	934.86003	-763.63984	-324.58504	712.66369	-482.10883	-330.92894	703.37047	-672.44755	-317.09444	710.06066	-485.00162	-312.90932	703.70975	-639.42060	
964	9.63000000	-75.49581	449.50943	-338.17240	-30.96227	392.02716	-329.17690	-247.71240	98.19793	-361.74336	-307.07226	58.43731	-413.22661	-140.06328	40.08389	-302.77448	-91.34294	61.10302	-350.83080	-66.53862	447.81746	-804.63590	-51.41529	364.55836	-828.08177	-232.31534	99.88029	-798.51372	-295.36071	58.04116	-748.17909	-123.82407	40.80039	-840.77553	-76.29905	58.41770	-788.75013	-79.29887	289.08547	-344.78138	-100.94209	418.47658	-310.92872	-150.72819	314.20848	-306.86014	-126.59789	411.79933	-824.96523	-180.48014	303.08380	-827.82891	-191.64782	710.79601	-444.01219	-113.63962	640.12657	-410.85945	-127.80728	617.89527	-347.48906	-255.82537	680.31337	-359.94638	-179.44707	600.73921	-331.07879	-247.29249	698.67308	-771.29135	-162.59168	590.06555	-809.75636	-334.52568	626.86827	-761.86503	-244.34661	521.99137	-764.15759	-223.54563	772.59208	-452.40905	-387.47634	862.20036	-537.65950	-222.93496	741.15860	-685.72798	-384.82559	858.21765	-635.24947	-132.57923	1239.13010	-581.67799	-69.54669	1184.62374	-416.30987	-56.87485	1181.18949	-727.74548	-41.83752	1121.59642	-551.94021	-38.37902	1118.62207	-588.49750	-86.51341	999.51564	-272.42114	-133.13601	882.90216	-269.58789	-99.58099	921.76744	-218.67023	23.58604	957.93002	-276.04506	88.18737	1001.21580	-338.29287	107.72667	963.16610	-324.38707	-85.61922	985.61943	-853.61395	-129.06632	857.24937	-828.74013	-102.40539	886.17698	-896.47029	21.16811	929.07217	-827.58141	84.55650	983.44733	-763.60796	99.89400	940.21666	-762.84310	-321.81004	719.27650	-482.29841	-328.19111	710.40336	-672.65691	-314.54778	716.69628	-484.81543	-310.33140	710.36284	-640.01087	
965	9.64000000	-77.60181	450.80693	-338.38251	-33.05399	393.36879	-329.47784	-247.82191	98.15474	-361.60690	-307.09343	58.41608	-413.22249	-140.07634	40.07699	-302.75942	-91.40702	61.15296	-350.80950	-68.13565	449.03798	-804.47139	-52.88605	365.61346	-828.16136	-232.46534	99.88690	-798.68430	-295.45795	57.98058	-748.19507	-123.83011	40.80279	-840.77522	-76.33823	58.46725	-788.74904	-80.79184	290.05091	-344.74013	-103.08464	419.48686	-311.22996	-152.40780	314.98356	-306.82353	-128.40948	412.37303	-824.90303	-181.82282	303.19475	-827.63999	-188.59313	715.29113	-443.23607	-112.05108	642.59515	-410.01503	-127.03779	620.24437	-346.89583	-253.90120	684.99870	-359.86769	-179.07808	603.88035	-331.06094	-244.37477	703.57130	-771.66941	-161.72087	593.42310	-810.02956	-332.79955	633.17549	-761.07416	-244.56570	527.28012	-765.36828	-220.99242	780.00294	-451.83034	-385.43451	868.84841	-537.42975	-219.97124	749.17100	-686.12924	-382.59745	864.86689	-635.21501	-135.34113	1249.22542	-581.59761	-71.93357	1195.37198	-416.27224	-59.48964	1191.99840	-728.17692	-43.44708	1132.54327	-552.02375	-39.94642	1129.57560	-588.65908	-90.70808	1008.99215	-273.02565	-139.87230	893.67462	-270.20792	-104.97032	931.48912	-219.45177	18.95475	964.44205	-277.61134	84.40036	1006.19418	-339.91196	102.95393	967.74269	-326.24000	-90.59368	995.33957	-852.75419	-138.45243	869.93117	-830.00310	-109.07085	895.92115	-894.72770	15.74979	936.01831	-826.04285	80.73820	989.02816	-762.60700	94.93230	945.36775	-761.62961	-318.87823	726.10869	-482.42807	-324.98904	717.66662	-672.81526	-311.84335	723.70597	-484.57379	-307.32213	717.36357	-640.35073	
